<?xml version="1.0" encoding="UTF-8" standalone="no"?>
<!-- Created with Inkscape (http://www.inkscape.org/) -->

<svg
   width="180mm"
   height="180mm"
   viewBox="0 0 180 180"
   version="1.1"
   id="svg21718"
   xmlns="http://www.w3.org/2000/svg"
   xmlns:svg="http://www.w3.org/2000/svg">
  <defs
     id="defs21715" />
  <g
     id="layer1">
    <g
       id="g1157"
       transform="translate(-10,-1.9470815)"
       style="fill:#ffffff">
      <path
         style="display:inline;fill:#ffffff;stroke:none;stroke-width:0.264583"
         d="m 53.792498,141.60765 c -0.43026,-0.69621 1.31585,-7.04664 2.84983,-10.36446 l 1.06794,-2.30989 3.4698,0.005 c 3.01135,0.004 6.34394,-0.38419 8.11461,-0.94618 l 0.46315,-0.147 -0.0774,0.73728 c -0.0426,0.4055 -0.20902,2.203 -0.36989,3.99443 l -0.29252,3.25715 -0.84323,0.7116 c -1.93222,1.63065 -4.42521,3.00313 -6.83225,3.76146 -2.62819,0.82799 -7.34042,1.6397 -7.55005,1.30055 z m 15.48755,0.0997 c 0,-0.0918 0.30522,-0.56703 0.67828,-1.05613 1.18486,-1.55343 1.68556,-3.10012 2.24684,-6.94076 0.30076,-2.05794 0.89109,-4.78071 1.31183,-6.0506 l 0.76499,-2.30889 2.45997,-2.28907 c 1.41188,-1.54389 1.566258,-1.71382 3.17397,-3.26678 l 0.42799,-0.79332 0.1852,1.05791 c 0.59685,3.40875 1.59404,6.88965 2.55577,8.92145 l 1.09215,2.3073 -0.82436,1.66145 c -2.39821,4.8334 -6.57373,7.6059 -13.21274,8.77309 -0.47294,0.0831 -0.85989,0.0761 -0.85989,-0.0157 z m 58.974902,-0.21778 c -5.41131,-1.07836 -10.49859,-4.96349 -12.11239,-9.25019 l -0.49456,-1.31368 0.73668,-1.46445 c 1.25082,-2.48651 2.37704,-6.06931 2.54963,-8.11113 0.1941,-2.29612 -0.0718,-2.3744 3.60415,1.06094 3.56818,3.33459 4.47993,5.40102 5.20798,11.80345 0.35809,3.149 0.86995,4.73125 2.0166,6.23343 1.26781,1.66093 1.3421,1.60962 -1.50809,1.04163 z m 15.34416,-0.006 c -4.89013,-0.82529 -8.30508,-2.22542 -11.2821,-4.62566 l -1.65364,-1.33327 -0.003,-1.25016 c 0,-0.68759 -0.17237,-2.38126 -0.38076,-3.76371 -0.37849,-2.51103 -0.25593,-3.27343 0.43757,-2.72185 0.71078,0.56532 4.88558,1.15325 8.18912,1.15325 h 3.33261 l 0.99354,2.17336 c 1.97419,4.3185 3.55317,10.89871 2.5772,10.74007 -0.10914,-0.0177 -1.1044,-0.18515 -2.21168,-0.37202 z M 24.036298,140.1931 c 0,-0.10672 1.0591,-1.98019 2.74407,-4.85406 0.49056,-0.83675 1.48524,-2.53339 2.21033,-3.77031 3.445908,-5.88303 6.533222,-10.88946 9.98659,-16.27293 l 1.23629,-1.98354 1.10561,0.14906 c 0.6081,0.082 1.38687,0.20672 1.73062,0.27719 l 0.62502,0.12812 -0.38237,0.45053 c -0.62228,0.73316 -2.05015,3.17083 -3.59601,6.13907 -0.79579,1.52796 -1.82409,3.43296 -2.28518,4.23333 -0.46106,0.80036 -0.92165,1.67599 -1.02354,1.94585 -0.1629,0.4315 -3.2966,5.96082 -4.93271,8.70363 l -0.59187,0.99219 h 4.88482 c 2.68666,0 5.47632,0.11217 6.19924,0.24927 1.50582,0.28557 8.03574,3.21248 7.8473,3.51739 -0.12493,0.20217 -25.75824,0.29692 -25.75824,0.0952 z m 125.677072,-0.0983 c 0,-0.26347 6.33142,-2.93431 8.06979,-3.40413 0.73962,-0.19989 3.42276,-0.42434 6.08542,-0.50905 3.386,-0.10772 4.73794,-0.23901 4.67757,-0.45421 -0.0467,-0.16648 -1.05249,-1.97397 -2.23502,-4.01664 -1.18255,-2.04267 -3.41651,-6.15472 -4.96432,-9.1379 -1.54784,-2.98318 -3.30478,-6.19345 -3.90433,-7.13394 -0.59952,-0.94049 -1.06579,-1.72749 -1.03616,-1.7489 0.0297,-0.0214 0.78507,-0.11194 1.6787,-0.20118 l 1.62481,-0.16225 1.9722,3.10178 c 3.62837,5.7065 13.78532,22.57804 14.12452,23.46199 l 0.15719,0.40958 h -13.12519 c -7.21886,0 -13.12518,-0.0923 -13.12518,-0.20515 z m -99.497802,-3.8974 c -1.68015,-0.59289 -6.86469,-3.59118 -6.86469,-3.96995 0,-0.0355 0.52086,-0.006 1.15745,0.0659 1.13318,0.12772 6.60466,-0.31181 7.7625,-0.62358 l 0.58558,-0.15767 -0.11179,0.49133 c -0.18312,0.80482 -1.35374,4.3144 -1.47574,4.42429 -0.062,0.0559 -0.53602,-0.0478 -1.05331,-0.2303 z m 98.033752,-0.31419 c -0.0873,-0.40845 -0.43201,-1.54631 -0.76602,-2.52858 -0.33398,-0.98226 -0.55464,-1.78593 -0.49035,-1.78593 0.0643,0 1.56588,0.19034 3.33687,0.423 1.77102,0.23265 3.84347,0.36048 4.6055,0.28406 0.76202,-0.0764 1.44785,-0.038 1.5241,0.0853 0.24548,0.3972 -5.42694,3.50968 -7.46484,4.096 l -0.58651,0.16874 z m -60.702522,-4.12268 c -0.006,-0.2583 -0.42685,-1.29637 -0.9357,-2.30683 -1.45661,-2.89244 -2.17432,-5.03725 -2.66247,-7.95669 l -0.45252,-2.70617 0.30184,-2.13431 c 0.48175,-3.40647 3.49676,-8.87273 4.90693,-8.89628 0.201965,0.1733 0.191486,0.3405 0.319311,0.62711 0.13576,0.19714 0.831919,1.18616 1.427099,2.2755 3.01918,5.52603 3.19542,11.53756 0.49633,16.93017 -1.11678,2.23128 -3.38198,5.00718 -3.40077,4.1675 z m 23.911022,0.11038 c 0.0614,-0.0993 -0.39333,-0.8554 -1.01039,-1.68027 -3.34359,-4.46959 -4.39981,-10.43303 -2.78164,-15.7054 0.55283,-1.55332 2.9039,-7.78902 4.41718,-6.01795 4.77753,5.8776 5.18285,11.94619 1.35917,20.34941 -0.45697,1.00427 -0.91231,2.11311 -1.01188,2.46407 -0.0995,0.35096 -0.38417,0.66793 -0.63248,0.70437 -0.24831,0.0365 -0.4013,-0.0149 -0.33994,-0.11423 z m -0.37357,-23.58555 c -73.284785,-70.073578 -36.642395,-35.036791 0,0 z m -71.297472,20.30677 c 0.82513,-3.8967 4.52099,-10.57703 7.54769,-13.64257 l 1.38779,-1.40558 1.08466,0.18349 c 1.91497,0.32397 7.09824,0.18078 9.28671,-0.25654 2.946952,-0.47306 2.7198,-0.69246 2.00548,0.56912 -0.13637,0.25466 -0.91348,1.88117 -1.72686,3.61446 -0.81341,1.73329 -2.26298,4.43789 -3.22127,6.01021 -0.95833,1.57232 -1.75983,3.16182 -1.78113,3.53223 -0.0214,0.37041 -0.2173,0.72571 -0.43558,0.78956 -2.16458,0.63321 -9.57731,1.45588 -13.18406,1.4632 l -1.14548,0.002 0.18206,-0.8599 z m 114.292262,0.58762 c -2.41266,-0.17673 -6.99918,-0.85783 -8.13594,-1.20818 -0.26627,-0.0821 -0.46302,-0.40258 -0.46302,-0.75425 0,-0.33635 -1.03224,-2.32262 -2.29388,-4.41394 -1.26167,-2.09132 -2.82374,-4.97718 -3.47128,-6.41303 l -1.17737,-2.61063 -0.20122,-0.76272 c 0,-0.17987 0.23286,-0.22959 0.59531,-0.12711 3.21557,0.90926 8.82375,1.29339 11.51414,0.78867 l 0.88591,-0.16619 1.18231,1.2891 c 1.58398,1.72699 3.27015,4.09072 4.41127,6.18389 0.9516,1.74553 3.37148,7.60354 3.37148,8.16167 0,0.3402 -1.88468,0.35012 -6.21771,0.0327 z m -95.911472,-3.33032 c 0,-0.0897 0.43059,-0.74956 0.95687,-1.46649 1.31622,-1.79308 3.03646,-5.00372 4.86831,-9.08614 l 1.54336,-3.43959 0.62408,0.042 c 0.34324,0.0231 2.12444,0.17019 3.95824,0.3269 2.30211,0.19674 4.20622,0.2023 6.15146,0.018 3.63699,-0.3446 4.14647,-0.41551 4.78414,-0.66578 l 0.52917,-0.20768 -0.43111,0.50788 c -0.23712,0.27934 -0.64135,0.92461 -0.89829,1.43393 -0.25694,0.50932 -0.92707,1.6205 -1.48921,2.46927 -1.001083,1.45894 -1.473585,2.14666 -2.47118,3.25788 -3.03258,3.51262 -6.81321,5.72324 -11.20976,6.55458 -2.15146,0.40682 -6.91608,0.58269 -6.91608,0.25528 z m 77.787492,-0.01 c -7.00609,-1.06362 -12.76821,-5.56682 -17.18484,-13.43029 -0.66744,-1.18831 -0.66742,-1.19709 0.003,-1.02206 1.63919,0.5126 1.63297,0.50912 2.90576,0.64629 1.97001,0.28095 11.3515,0.14747 12.18769,-0.1734 0.31665,-0.12151 0.53991,0.15205 0.90432,1.10809 1.35633,3.55822 4.24003,9.04622 5.97884,11.37838 0.56494,0.75774 1.02717,1.44235 1.02717,1.52136 0,0.15689 -4.7525,0.13335 -5.82084,-0.0288 z M 50.230068,110.80458 c -0.21828,-0.0544 -2.03398,-0.3006 -4.03489,-0.54708 -2.00091,-0.24648 -3.63802,-0.527 -3.63802,-0.62338 0,-0.5028 4.4524,-4.87371 6.18384,-6.07066 3.21934,-2.22554 5.19004,-3.03185 7.73676,-3.16552 l 2.17069,-0.11393 2.33924,0.66142 c 1.28659,0.36377 2.96434,0.81736 3.72832,1.00797 3.098892,0.45456 1.499075,1.58372 0.39688,2.83431 -4.53319,5.12997 -5.9149,5.86574 -11.31094,6.02319 -1.74625,0.051 -3.3536,0.0481 -3.57188,-0.006 z m 92.207282,-0.22447 c -2.16384,-0.56494 -3.29681,-1.24175 -5.14418,-3.07297 -2.16557,-2.14664 -4.5434,-4.83595 -4.40143,-4.97793 0.21178,-0.21178 6.73346,-1.89976 8.33882,-2.15829 4.33322,-0.697835 10.02054,2.3839 14.85014,8.04673 l 1.12826,1.32292 -2.75561,0.45148 c -3.81254,0.62465 -10.30652,0.83437 -12.016,0.38806 z m -74.559622,-1.50719 c -1.13509,-0.10822 -2.12588,-0.25883 -2.20173,-0.33469 -0.37611,-0.3761 4.62063,-4.90011 6.45961,-5.84851 l 1.92953,-0.99509 1.90693,1.1804 c 2.55995,1.58459 4.52671,2.56133 6.2333,3.0956 l 1.41591,0.44327 -0.90373,0.53321 c -3.11669,1.8389 -8.4677,2.53331 -14.83982,1.92581 z m 54.980462,-0.10809 c -1.78017,-0.30702 -4.24342,-1.04027 -6.28386,-1.87059 -0.25466,-0.10363 -0.46302,-0.31458 -0.46302,-0.46879 0,-0.1542 0.0703,-0.21007 0.15621,-0.12416 0.0859,0.0859 0.63437,-0.0125 1.21881,-0.21869 2.27602,-0.9915 2.70335,-1.19832 4.13086,-1.89669 1.55567,-0.74535 3.11057,-1.61948 3.45532,-1.94254 l 0.62683,-0.58734 1.47341,0.72263 c 1.95643,0.95953 4.13165,2.6974 5.67346,4.53271 1.38927,1.65376 1.46912,1.84282 0.79375,1.87953 -5.56863,0.30276 -8.9222,0.29465 -10.78177,-0.0261 z m -87.536062,-4.86749 c -0.53917,-0.59577 -0.5691,-1.72374 -0.057,-2.14872 0.6668,-0.55339 1.82541,-0.22681 2.23417,0.62974 l 0.36999,0.77533 -0.71353,0.61376 c -0.86053,0.74021 -1.25592,0.76822 -1.83361,0.12989 z m 126.934632,-0.4422 -0.43339,-0.66146 0.43339,-0.66147 c 0.79574,-1.21442 2.53789,-0.76035 2.53789,0.66147 0,1.42182 -1.74215,1.87589 -2.53789,0.66146 z m -49.53753,0.0294 c -0.25619,-0.16847 -0.1144,-0.67476 0.3306,-1.857 2.83467,-7.531055 8.39044,-11.791045 15.98483,-12.256695 l 2.47232,-0.15159 -0.65802,1.29713 c -3.34418,6.59235 -9.04687,11.238385 -15.72983,12.815205 l -1.88718,0.33218 z m -29.151662,-0.53487 c -6.22191,-1.91109 -10.66268,-5.618655 -14.17719,-11.836465 -0.49723,-0.87969 -0.90406,-1.64752 -0.90406,-1.7063 0,-0.28109 3.73573,-0.059 5.27476,0.31354 5.64394,1.36627 9.5063,4.61275 12.22256,10.273625 0.74303,1.85424 0.92282,2.28623 1.46204,3.72101 -3.14815,-0.53879 -0.38733,0.0383 -3.878,-0.76541 z m -15.21354,-3.713805 c -1.16417,-0.1818 -2.89057,-0.52503 -3.83646,-0.76273 -4.22145,-1.06082 -6.97367,-1.52331 -9.98802,-1.67842 -1.78263,-0.0917 -3.2359,-0.23798 -3.2295,-0.325 0.0814,-1.10591 7.20055,-5.03738 10.57169,-5.83807 3.31195,-0.78663 3.09208,-0.88234 4.885,2.12635 0.86773,1.45615 2.20718,3.4843 2.97656,4.50702 0.76936,1.02272 1.39886,1.9707 1.39886,2.10663 0,0.29254 -0.0516,0.29001 -2.77813,-0.13578 z m 60.650562,-0.56656 c 0.30512,-0.42368 0.77594,-1.00844 1.04632,-1.29949 0.62582,-0.67371 2.65496,-3.77017 3.79164,-5.78606 l 0.87553,-1.55273 1.37652,0.16178 c 1.67368,0.19671 5.02246,1.29154 7.02437,2.29652 1.4631,0.73448 5.27151,3.5911 5.27151,3.95406 0,0.10391 -1.51805,0.25903 -3.37344,0.34469 -2.68708,0.12408 -4.26164,0.37455 -7.73906,1.2311 -2.40109,0.59144 -5.36969,1.15299 -6.59688,1.2479 l -2.23124,0.17255 z m -84.912532,-5.01343 -0.30583,-0.67123 0.4214,-0.4214 c 0.58385,-0.58385 1.78911,-0.27067 1.78911,0.46489 0,1.26291 -1.40438,1.72577 -1.90468,0.62774 z m 110.005852,0.25546 c -0.70308,-0.70309 -0.40613,-1.70089 0.50618,-1.70089 0.90249,0 1.34125,0.65857 0.97472,1.46304 -0.34187,0.75027 -0.88175,0.83698 -1.4809,0.23785 z m -58.463042,-6.53197 c -7.77523,-0.5968 -13.65017,-4.49689 -17.12296,-11.36711 -0.98308,-1.94484 -1.00248,-1.8926 0.62387,-1.68049 6.25792,0.81614 10.96359,2.99502 14.89844,6.89847 2.12522,2.10826 4.56538,5.64552 4.28561,6.21239 -0.0374,0.0757 -1.24558,0.0472 -2.68496,-0.0633 z m 5.659752,0.0132 c 0.90084,-1.801962 2.39844,-4.033717 3.78976,-5.63887 3.25027,-3.62999 9.0061,-6.42198 14.98462,-7.26865 2.10892,-0.29866 2.06301,-0.35361 1.22807,1.47013 -2.559,5.5896 -7.55391,9.64069 -13.49061,10.94147 -2.65093,0.58084 -6.51184,0.87489 -6.51184,0.49593 z m -2.378452,-5.70569 c -0.49421,-0.64379 -1.59001,-1.77191 -2.43505,-2.50693 -1.95519,-1.70057 -1.97112,-2.46268 -0.13759,-6.58691 0.60975,-1.37156 3.232728,-5.51804 3.490558,-5.51804 0.694184,0 4.122714,6.28582 4.772934,8.75059 0.44156,1.67393 0.56427,1.44199 -2.39869,4.534 l -2.393554,2.49783 z m -42.27183,-1.15968 c -0.91615,-0.91613 0.13954,-2.40945 1.27407,-1.80226 0.40826,0.21849 0.5242,0.50237 0.46303,1.13378 l -0.0816,0.84232 -0.66331,0.0775 c -0.36484,0.0426 -0.81132,-0.0705 -0.99219,-0.25135 z m 84.876262,-0.20564 c -0.40436,-0.75554 -0.34166,-1.01913 0.35028,-1.47251 0.772,-0.50583 1.44603,-0.27729 1.65661,0.56169 0.31268,1.24589 -1.4093,2.02742 -2.00689,0.91082 z m -30.96556,-6.50766 c 0,-1.57613 3.39082,-6.79296 7.1438,-10.99084 2.23102,-2.49549 3.21985,-3.84578 4.09974,-5.59845 1.24804,-2.48594 1.24437,-2.48636 1.69744,0.1931 0.72525,4.28928 0.57848,9.2851 -0.36616,12.46262 l -0.40137,1.35013 -1.91953,0.1659 c -1.94169,0.16781 -7.51369,1.49641 -9.15916,2.18393 -0.99269,0.41478 -1.09476,0.43656 -1.09476,0.23361 z m -24.019642,-0.80863 c -2.48068,-0.8138 -6.81852,-1.69694 -8.33506,-1.69694 h -1.18306 l -0.43817,-1.74438 c -0.93417,-3.71898 -1.01267,-10.15294 -0.16238,-13.31066 0.37296,-1.38507 0.31845,-1.41769 1.39314,0.83369 1.02788,2.15326 2.17622,3.68365 5.00364,6.66825 3.15555,3.33101 4.85555,5.95928 6.12616,9.47133 0.21199,0.58597 -0.004,0.56608 -2.40427,-0.22129 z m 2.00181,-7.02968 -1.05087,-1.32947 0.16121,-0.83608 c 0.35865,-1.85994 3.79185,-8.64129 4.37484,-8.64129 0.11795,0 0.53697,0.68117 0.93117,1.51371 0.7489,1.58174 2.58911,4.71279 3.88116,6.60376 0.94412,1.38169 0.94695,1.33474 -0.18059,2.97394 -0.926903,1.516196 -1.709135,2.731466 -2.52915,4.22863 l -1.366017,2.504083 c -1.153935,-1.962335 -2.816036,-4.766251 -4.221753,-7.017283 z m 17.289482,4.72148 c -0.49051,-1.00757 -1.53172,-2.76626 -2.31378,-3.9082 l -1.42195,-2.07625 0.82063,-1.39176 c 0.45133,-0.76547 1.1493,-1.87104 1.55102,-2.45683 0.40171,-0.58579 1.10495,-1.80886 1.56276,-2.71794 0.45778,-0.90908 1.05087,-2.01223 1.31797,-2.45145 l 0.48564,-0.79857 0.93454,1.5254 c 1.3114,2.14054 2.14521,3.86522 2.94256,6.08644 l 0.68747,1.91521 -1.34152,1.78896 c -0.73784,0.98393 -1.81687,2.79102 -2.39781,4.01576 -0.69872,1.47298 -1.44472,2.74415 -1.58384,2.51904 -1.07018,-1.65492 -0.53906,-0.78911 -1.24369,-2.04981 z m -6.384154,-9.15942 c -1.410417,-2.200071 -3.017453,-4.510159 -4.093838,-6.86713 l -0.9947,-2.21803 0.34388,-1.08926 c 0.46487,-1.47246 2.8871,-6.32944 4.16271,-8.34688 l 1.035758,-1.63811 1.314984,2.1989 c 1.58795,2.65539 3.45056,6.55113 3.85482,8.06264 l 0.29533,1.10419 -1.34218,2.73374 c -0.56009,1.083476 -3.96975,6.272682 -4.208204,6.30564 -0.2027,0 -0.36856,-0.11056 -0.36856,-0.24569 z m 14.942524,-0.3037 c -0.32481,-0.996138 -0.87286,-2.188559 -1.59189,-3.61828 -0.61371,-1.27307 -1.76462,-3.24629 -2.55763,-4.38493 l -1.44182,-2.07025 1.18097,-2.42766 c 0.64953,-1.33522 1.62444,-3.47661 2.16649,-4.75864 0.54205,-1.28204 1.09188,-2.3536 1.22187,-2.38125 0.90599,-0.19272 4.39293,6.79367 5.01592,10.04979 0.78295,4.09214 0.30551,5.81399 -2.38374,8.59662 l -1.44877,1.49877 -0.16005,-0.50422 z M 84.926418,61.66828 c -0.970566,-1.021264 -1.773315,-2.235237 -2.60416,-3.082385 l -1.13596,-1.67764 v -2.05035 c 0,-3.71996 1.26444,-7.42804 3.91202,-11.47238 l 1.34945,-2.06133 0.2522,0.47383 c 0.13873,0.26062 0.87538,1.96213 1.63703,3.78114 0.76166,1.81901 1.6773,3.88919 2.03473,4.60041 l 0.6499,1.29313 -0.61175,0.82354 c -1.55085,2.08778 -2.50968,3.66681 -3.71125,6.11177 -1.50919,3.07093 0,0 -1.77221,3.260265 z M 105.70914,45.706615 c -1.18883,-2.33751 -4.69578,-8.512481 -5.47286,-9.636521 l -0.396874,-0.574072 -1.823138,3.12334 c -1.00271,1.717833 -2.20518,3.778183 -2.67217,4.578553 -0.46697,0.80036 -1.18949,2.13981 -1.60557,2.97656 -0.41609,0.83674 -0.82955,1.52135 -0.91882,1.52135 -0.24821,0 -3.16685,-6.73308 -3.16606,-7.30388 0,-0.53063 1.20825,-2.657328 2.62136,-4.616692 1.29056,-1.789459 7.258648,-8.40926 7.602018,-8.432176 0.750144,-0.05006 8.489354,9.300676 9.868544,11.923488 l 0.64577,1.22803 -1.09535,2.47614 c -0.60246,1.36187 -1.38401,3.06927 -1.7368,3.79421 l -0.64143,1.31808 z m 8.07437,-7.902437 -1.66629,-0.844375 -1.24413,-1.749832 c -2.76106,-3.288266 -5.02039,-6.691932 -7.04424,-9.851012 -0.79862,-1.237935 -1.94408,-3.147372 -2.5455,-4.243194 -0.60144,-1.095825 -1.18521,-2.049079 -1.297284,-2.118344 -0.11208,-0.06927 -1.471558,2.043525 -3.021088,4.695092 -2.95047,5.048837 -3.21042,5.433406 -5.9891,8.860401 -0.94589,1.166574 -2.13651,2.674604 -2.64583,3.351175 -0.80899,1.074634 -3.09539,2.531322 -3.97312,2.531322 -0.17047,0 4.05157,-7.657793 8.46077,-15.345831 0.62592,-1.091406 1.49677,-2.639218 1.93519,-3.439583 0.43841,-0.800365 0.88638,-1.574271 0.99549,-1.719792 0.10909,-0.145521 1.05414,-1.752647 2.10012,-3.571396 1.04595,-1.818746 1.935588,-3.340647 1.976938,-3.382002 0.0796,-0.07957 0.828854,1.160931 4.439744,7.350273 7.17878,12.305099 11.37674,19.815339 11.25513,20.13576 -0.0388,0.102143 -0.82031,-0.194254 -1.7368,-0.658662 z"
         id="path5537" />
      <g
         aria-label="TRÊS PONTOS"
         transform="matrix(1.0550603,0,0,0.92244218,0.6023228,1.7755313)"
         id="text2646"
         style="font-size:29.6501px;line-height:1.25;fill:#ffffff;fill-opacity:1;stroke:none;stroke-width:0.741252;stroke-opacity:1">
        <path
           d="m 18.247061,185.06062 v -18.62026 h -4.328915 v -3.61731 H 26.99384 l -0.415101,3.61731 h -4.002764 v 18.62026 z"
           style="font-family:Freeman;-inkscape-font-specification:'Freeman, Normal';fill:#ffffff;fill-opacity:1;stroke:none;stroke-opacity:1"
           id="path45056" />
        <path
           d="m 39.298619,185.53502 -3.795213,-8.95433 H 33.5465 v 8.47993 h -4.358565 v -22.23757 h 5.574219 q 3.617312,0 5.633519,1.6604 2.016207,1.63076 2.016207,5.18877 0,1.89761 -0.800553,3.35046 -0.770903,1.45286 -2.253408,2.34236 l 3.943464,8.71713 z M 33.5465,173.11163 h 1.008103 q 1.423205,0 2.431308,-0.8302 1.037754,-0.8302 1.037754,-2.57956 0,-1.92726 -0.948803,-2.66851 -0.948804,-0.74125 -2.520259,-0.74125 H 33.5465 Z"
           style="font-family:Freeman;-inkscape-font-specification:'Freeman, Normal';fill:#ffffff;fill-opacity:1;stroke:none;stroke-opacity:1"
           id="path45058" />
        <path
           d="m 45.525101,185.06062 v -22.23757 h 11.80074 l -0.444752,3.61731 h -6.997423 v 5.39632 h 5.633519 l -0.444752,3.55801 h -5.188767 v 6.04862 h 7.590425 l -0.415101,3.61731 z m 4.536465,-28.70129 h 2.698159 l 3.646963,3.58766 -1.749356,1.6604 -3.231861,-2.84641 -3.231861,2.84641 -1.749356,-1.6604 z"
           style="font-family:Freeman;-inkscape-font-specification:'Freeman, Normal';fill:#ffffff;fill-opacity:1;stroke:none;stroke-opacity:1"
           id="path45060" />
        <path
           d="m 65.894665,185.53502 q -1.897606,0 -3.409761,-0.7116 -1.512155,-0.74125 -2.372008,-2.22376 -0.859853,-1.51215 -0.859853,-3.82486 l 3.913813,-0.44475 q 0,1.63076 0.711602,2.63886 0.741253,1.0081 2.105158,1.0081 1.126703,0 1.690055,-0.6523 0.563352,-0.68195 0.563352,-1.80866 0,-1.21565 -0.622652,-1.8976 -0.622652,-0.68195 -1.601105,-1.24531 l -2.698159,-1.57145 q -1.571456,-0.91915 -2.66851,-2.43131 -1.067403,-1.54181 -1.067403,-3.70626 0,-1.77901 0.770902,-3.17256 0.800553,-1.42321 2.283058,-2.25341 1.512155,-0.8302 3.587662,-0.8302 2.78711,0 4.477166,1.6011 1.719705,1.60111 1.779006,4.80332 l -3.913814,0.85985 q 0,-3.70626 -2.431308,-3.70626 -1.008103,0 -1.601105,0.62265 -0.563352,0.62265 -0.563352,1.71971 0,1.0674 0.533702,1.74935 0.563351,0.68195 1.571455,1.27496 l 2.668509,1.6011 q 1.838306,1.09706 2.87606,2.60921 1.067403,1.48251 1.067403,3.67661 0,1.98656 -0.859853,3.40976 -0.859853,1.42321 -2.401658,2.16446 -1.512155,0.74125 -3.528362,0.74125 z"
           style="font-family:Freeman;-inkscape-font-specification:'Freeman, Normal';fill:#ffffff;fill-opacity:1;stroke:none;stroke-opacity:1"
           id="path45062" />
        <path
           d="m 81.935331,185.06062 v -22.23757 h 5.277718 q 3.943464,0 5.959671,1.779 2.045856,1.74936 2.045856,5.18877 0,3.46906 -2.075507,5.33702 -2.045856,1.83831 -5.93002,1.83831 h -0.919153 v 8.09447 z m 4.358565,-11.71179 H 87.5392 q 1.601106,0 2.460959,-0.8895 0.859853,-0.91915 0.859853,-2.57956 0,-3.43941 -3.320812,-3.43941 h -1.245304 z"
           style="font-family:Freeman;-inkscape-font-specification:'Freeman, Normal';fill:#ffffff;fill-opacity:1;stroke:none;stroke-opacity:1"
           id="path45064" />
        <path
           d="m 104.61762,185.47572 q -2.54991,0 -4.18066,-1.4232 -1.60111,-1.42321 -2.342363,-4.00276 -0.741252,-2.60921 -0.741252,-6.10792 0,-3.52837 0.741252,-6.10793 0.741253,-2.57955 2.342363,-4.00276 1.63075,-1.4232 4.18066,-1.4232 2.57956,0 4.18066,1.4232 1.60111,1.42321 2.34236,4.00276 0.74125,2.57956 0.74125,6.10793 0,3.49871 -0.74125,6.10792 -0.74125,2.57955 -2.34236,4.00276 -1.6011,1.4232 -4.18066,1.4232 z m 0,-3.79521 q 0.91915,0 1.45285,-0.62265 0.56336,-0.62265 0.83021,-1.71971 0.26685,-1.09705 0.32615,-2.4906 0.0889,-1.39356 0.0889,-2.90571 0,-1.51216 -0.0889,-2.90571 -0.0593,-1.39356 -0.32615,-2.49061 -0.26685,-1.09706 -0.83021,-1.71971 -0.5337,-0.62265 -1.45285,-0.62265 -0.91915,0 -1.45286,0.62265 -0.5337,0.62265 -0.80055,1.71971 -0.26685,1.09705 -0.3558,2.49061 -0.0889,1.39355 -0.0889,2.90571 0,1.51215 0.0889,2.90571 0.0889,1.39355 0.3558,2.4906 0.26685,1.09706 0.80055,1.71971 0.53371,0.62265 1.45286,0.62265 z"
           style="font-family:Freeman;-inkscape-font-specification:'Freeman, Normal';fill:#ffffff;fill-opacity:1;stroke:none;stroke-opacity:1"
           id="path45066" />
        <path
           d="m 124.80929,185.32747 -6.01897,-13.96519 0.0297,0.20755 v 13.49079 h -4.09172 v -22.05967 l 3.94347,-0.4744 5.72247,13.60939 -0.0296,-0.3558 v -12.95709 h 4.09171 v 22.03002 z"
           style="font-family:Freeman;-inkscape-font-specification:'Freeman, Normal';fill:#ffffff;fill-opacity:1;stroke:none;stroke-opacity:1"
           id="path45068" />
        <path
           d="m 135.09782,185.06062 v -18.62026 h -4.32891 v -3.61731 h 13.07569 l -0.4151,3.61731 h -4.00276 v 18.62026 z"
           style="font-family:Freeman;-inkscape-font-specification:'Freeman, Normal';fill:#ffffff;fill-opacity:1;stroke:none;stroke-opacity:1"
           id="path45070" />
        <path
           d="m 151.85008,185.47572 q -2.54991,0 -4.18066,-1.4232 -1.60111,-1.42321 -2.34236,-4.00276 -0.74126,-2.60921 -0.74126,-6.10792 0,-3.52837 0.74126,-6.10793 0.74125,-2.57955 2.34236,-4.00276 1.63075,-1.4232 4.18066,-1.4232 2.57956,0 4.18066,1.4232 1.60111,1.42321 2.34236,4.00276 0.74125,2.57956 0.74125,6.10793 0,3.49871 -0.74125,6.10792 -0.74125,2.57955 -2.34236,4.00276 -1.6011,1.4232 -4.18066,1.4232 z m 0,-3.79521 q 0.91915,0 1.45285,-0.62265 0.56336,-0.62265 0.83021,-1.71971 0.26685,-1.09705 0.32615,-2.4906 0.0889,-1.39356 0.0889,-2.90571 0,-1.51216 -0.0889,-2.90571 -0.0593,-1.39356 -0.32615,-2.49061 -0.26685,-1.09706 -0.83021,-1.71971 -0.5337,-0.62265 -1.45285,-0.62265 -0.91915,0 -1.45286,0.62265 -0.5337,0.62265 -0.80055,1.71971 -0.26685,1.09705 -0.3558,2.49061 -0.089,1.39355 -0.089,2.90571 0,1.51215 0.089,2.90571 0.089,1.39355 0.3558,2.4906 0.26685,1.09706 0.80055,1.71971 0.53371,0.62265 1.45286,0.62265 z"
           style="font-family:Freeman;-inkscape-font-specification:'Freeman, Normal';fill:#ffffff;fill-opacity:1;stroke:none;stroke-opacity:1"
           id="path45072" />
        <path
           d="m 167.71283,185.53502 q -1.89761,0 -3.40977,-0.7116 -1.51215,-0.74125 -2.372,-2.22376 -0.85986,-1.51215 -0.85986,-3.82486 l 3.91382,-0.44475 q 0,1.63076 0.7116,2.63886 0.74125,1.0081 2.10516,1.0081 1.1267,0 1.69005,-0.6523 0.56335,-0.68195 0.56335,-1.80866 0,-1.21565 -0.62265,-1.8976 -0.62265,-0.68195 -1.6011,-1.24531 l -2.69816,-1.57145 q -1.57146,-0.91915 -2.66851,-2.43131 -1.06741,-1.54181 -1.06741,-3.70626 0,-1.77901 0.77091,-3.17256 0.80055,-1.42321 2.28306,-2.25341 1.51215,-0.8302 3.58766,-0.8302 2.78711,0 4.47716,1.6011 1.71971,1.60111 1.77901,4.80332 l -3.91381,0.85985 q 0,-3.70626 -2.43131,-3.70626 -1.00811,0 -1.60111,0.62265 -0.56335,0.62265 -0.56335,1.71971 0,1.0674 0.5337,1.74935 0.56335,0.68195 1.57146,1.27496 l 2.66851,1.6011 q 1.8383,1.09706 2.87606,2.60921 1.0674,1.48251 1.0674,3.67661 0,1.98656 -0.85985,3.40976 -0.85986,1.42321 -2.40166,2.16446 -1.51216,0.74125 -3.52836,0.74125 z"
           style="font-family:Freeman;-inkscape-font-specification:'Freeman, Normal';fill:#ffffff;fill-opacity:1;stroke:none;stroke-opacity:1"
           id="path45074" />
      </g>
    </g>
  </g>
</svg>
